<?xml version="1.0" encoding="UTF-8"?>
<svg xmlns="http://www.w3.org/2000/svg" xmlns:xlink="http://www.w3.org/1999/xlink" width="92.01pt" height="119.06pt" viewBox="0 0 92.01 119.06" version="1.1">
<defs>
<clipPath id="clip1">
  <path d="M 0 0 L 92.011719 0 L 92.011719 119.058594 L 0 119.058594 Z M 0 0 "/>
</clipPath>
</defs>
<g id="surface1">
<path style=" stroke:none;fill-rule:nonzero;fill:rgb(13.725281%,12.156677%,12.548828%);fill-opacity:1;" d="M 72.105469 10.769531 C 74.480469 10.074219 76.761719 8.75 78.816406 7.234375 C 78.984375 7.425781 79.164063 7.574219 79.441406 7.882813 L 65.695313 26.8125 L 13.402344 97.648438 C 10.125 92.492188 8.15625 86.796875 8.105469 80.339844 C 8.105469 80.339844 8.128906 27.785156 8.121094 27.398438 C 8.121094 26.753906 7.574219 25.671875 6.765625 25.347656 C 6.007813 25.039063 2.835938 25.023438 2.835938 25.023438 C 2.835938 25.023438 9.394531 12.96875 12.765625 7.242188 C 20.007813 13.210938 32.335938 13.703125 40.257813 8.808594 C 42.265625 7.636719 44.148438 6.21875 45.90625 4.359375 C 53.148438 10.78125 62.34375 13.613281 72.105469 10.769531 "/>
<g clip-path="url(#clip1)" clip-rule="nonzero">
<path style=" stroke:none;fill-rule:nonzero;fill:rgb(13.725281%,12.156677%,12.548828%);fill-opacity:1;" d="M 90.894531 26.246094 L 85.65625 26.253906 L 85.605469 44.425781 L 85.648438 83.410156 C 84.527344 96.617188 74.011719 109.484375 61.734375 114.570313 C 49.898438 120.589844 33.554688 118.289063 23.234375 110.609375 C 13.355469 103.613281 7.238281 93.539063 6.503906 81.992188 L 6.359375 26.25 L 1.171875 26.25 L 1.179688 24.753906 L 12.226563 4.5 C 18.441406 10.816406 29.007813 12.089844 36.882813 8.664063 C 40.308594 7.292969 43.328125 4.800781 45.917969 1.765625 C 52.03125 9.203125 61.585938 11.894531 70.882813 9.445313 C 74.011719 8.367188 77.09375 7.285156 79.589844 4.691406 C 83.402344 11.246094 86.992188 17.378906 90.894531 24.316406 Z M 92.015625 24.074219 L 79.882813 2.832031 C 76.703125 6.355469 72.839844 7.882813 68.585938 8.808594 C 59.824219 10.472656 51.445313 7.050781 45.917969 0.00390625 C 42.738281 4.160156 38.59375 7.195313 33.996094 8.46875 C 25.976563 10.816406 17.65625 8.664063 11.984375 2.84375 L 0 24.222656 L 0 27.398438 L 5.28125 27.398438 L 5.480469 81.792969 C 6.066406 92.117188 10.46875 100.824219 18.34375 108.160156 C 29.351563 118.484375 46.71875 122.203125 60.953125 116.136719 C 73.917969 111.246094 85.359375 97.746094 86.628906 83.847656 L 86.628906 27.386719 L 92.015625 27.386719 C 92.015625 26.203125 91.964844 25.246094 92.015625 24.074219 "/>
</g>
<path style=" stroke:none;fill-rule:nonzero;fill:rgb(100%,94.898987%,0%);fill-opacity:1;" d="M 53.242188 10.554688 C 53.214844 10.632813 43.148438 21.433594 43.148438 21.433594 L 45.886719 24.222656 L 61.734375 12.96875 C 67.113281 13.554688 72.203125 12.28125 76.605469 9.984375 L 71.957031 16.492188 L 47.546875 27.398438 C 48.140625 28.90625 48.152344 28.972656 48.773438 30.578125 C 53.859375 29.453125 58.898438 28.230469 64.03125 27.253906 L 58.996094 34.003906 L 49.109375 34.199219 L 48.773438 37.621094 C 51.628906 38.253906 53.078125 38.503906 55.226563 38.945313 C 54.089844 40.597656 53.613281 41.292969 52.734375 42.464844 C 50.390625 41.65625 50.078125 41.472656 47.890625 40.703125 L 45.886719 44.425781 L 49.359375 47.019531 C 48.265625 48.613281 48.035156 48.921875 47.304688 49.851563 C 46.128906 48.875 45.054688 47.699219 43.925781 46.625 C 42.851563 47.308594 41.921875 48.285156 40.847656 48.972656 L 44.027344 54.109375 C 43.085938 55.582031 42.71875 56.074219 41.484375 57.777344 C 39.824219 53.933594 39.378906 52.691406 38.15625 50.195313 L 34.441406 51.269531 C 35.074219 55.527344 35.953125 59.882813 36.734375 64.234375 L 31.992188 70.742188 C 31.796875 64.382813 31.550781 57.777344 31.550781 51.515625 L 27.929688 51.027344 L 25.828125 62.035156 L 21.574219 84.828125 C 18.832031 88.5 16.191406 92.171875 13.453125 95.84375 C 12.34375 93.332031 12.207031 93.179688 10.480469 88.824219 L 25.191406 50.292969 C 23.648438 49.375 23.605469 49.375 22.453125 48.628906 C 17.953125 55.378906 13.472656 62.375 9.121094 69.226563 L 9.148438 58.851563 C 12.621094 54.742188 16.339844 50.78125 20.105469 46.769531 L 17.707031 43.980469 L 9.132813 49.964844 L 9.148438 44.667969 C 11.496094 43.445313 13.992188 42.5625 16.289063 41.339844 C 15.554688 39.496094 15.503906 39.257813 14.96875 37.621094 L 9.148438 38.847656 L 9.148438 34.886719 L 14.625 34.785156 C 14.824219 33.464844 14.96875 32.144531 15.164063 30.824219 C 13.207031 30.285156 11.171875 29.855469 9.117188 29.515625 C 9.246094 27.296875 9.074219 25.769531 7.40625 24.789063 C 6.578125 24.351563 5.59375 24.222656 4.5625 24.273438 C 4.859375 23.730469 4.921875 23.628906 5.058594 23.351563 C 8.875 24.625 12.28125 26.46875 16.042969 27.839844 L 17.953125 24.511719 C 15.019531 21.96875 11.542969 19.914063 8.363281 17.46875 C 8.941406 16.429688 9.820313 14.847656 10.53125 13.570313 L 19.566406 22.554688 C 20.496094 21.625 21.621094 20.699219 22.746094 19.914063 L 17.269531 11.207031 L 22.109375 12.722656 C 23.234375 14.535156 23.773438 16.734375 24.753906 18.691406 C 26.476563 18.1875 26.570313 18.144531 28.46875 17.566406 L 27.640625 13.210938 L 30.574219 13.164063 L 30.71875 17.273438 L 34.339844 17.46875 L 35.515625 12.089844 L 40.0625 10.132813 L 37.179688 18.054688 L 41.039063 19.769531 L 48.625 7.929688 C 50.539063 9.132813 50.59375 9.132813 53.242188 10.554688 "/>
<path style=" stroke:none;fill-rule:nonzero;fill:rgb(13.725281%,12.156677%,12.548828%);fill-opacity:1;" d="M 89.414063 24.992188 C 86.460938 25.023438 84.457031 24.5625 83.992188 26.515625 L 83.953125 84.175781 C 82.683594 96.996094 71.8125 108.996094 59.875 113.59375 C 47.695313 119.074219 32.527344 115.632813 22.308594 107.871094 C 18.546875 105.019531 13.96875 98.882813 13.96875 98.882813 L 80.324219 9.007813 C 83.453125 14.046875 86.429688 19.710938 89.414063 24.992188 "/>
<path style=" stroke:none;fill-rule:nonzero;fill:rgb(0%,68.199158%,93.699646%);fill-opacity:1;" d="M 87.507813 24.039063 C 85.796875 23.890625 82.753906 24.027344 82.863281 27.59375 C 82.863281 28.628906 82.773438 83.117188 82.773438 83.117188 C 81.789063 96.46875 70.554688 108.808594 58.210938 113.152344 C 45.484375 117.628906 30.984375 113.816406 20.984375 105.421875 C 17.792969 102.742188 16.058594 100.113281 15.191406 98.902344 L 80.128906 10.960938 C 82.71875 15.023438 85.15625 19.683594 87.507813 24.039063 "/>
<path style=" stroke:none;fill-rule:nonzero;fill:rgb(100%,94.898987%,0%);fill-opacity:1;" d="M 37.960938 25.492188 L 37.960938 25.734375 L 36.882813 25.734375 C 37.082031 25.246094 36.835938 24.5625 37.421875 24.316406 C 38.15625 24.167969 37.914063 25.050781 37.960938 25.492188 "/>
<path style=" stroke:none;fill-rule:nonzero;fill:rgb(100%,94.898987%,0%);fill-opacity:1;" d="M 26.953125 46.625 C 27.101563 45.792969 27.296875 44.8125 28.175781 44.472656 L 28.273438 46.625 L 26.953125 46.625 "/>
<path style=" stroke:none;fill-rule:evenodd;fill:rgb(13.725281%,12.156677%,12.548828%);fill-opacity:1;" d="M 63.664063 75.183594 C 64.269531 75.179688 65.03125 75.195313 65.652344 75.289063 C 66.789063 75.449219 67.832031 75.609375 69.121094 75.554688 C 68.984375 75.335938 67.988281 75.097656 67.722656 75.023438 C 64.613281 74.121094 60.484375 74.671875 57.921875 75.488281 C 57.457031 75.636719 56.953125 75.726563 56.652344 76.019531 C 57.796875 76.246094 59.890625 75.804688 60.988281 75.554688 C 61.289063 75.488281 63.09375 75.195313 63.664063 75.183594 "/>
<path style=" stroke:none;fill-rule:evenodd;fill:rgb(13.725281%,12.156677%,12.548828%);fill-opacity:1;" d="M 48.585938 74.820313 C 51.066406 75.324219 54.828125 76.476563 57.121094 75.023438 C 54.421875 74.847656 51.234375 74.210938 48.585938 74.820313 "/>
<path style=" stroke:none;fill-rule:evenodd;fill:rgb(13.725281%,12.156677%,12.548828%);fill-opacity:1;" d="M 40.648438 76.421875 C 39.753906 76.511719 39.351563 76.230469 38.3125 76.289063 C 39.210938 76.472656 40.398438 76.957031 41.582031 77.023438 C 43.714844 77.132813 45.792969 75.851563 47.785156 75.957031 C 48.199219 75.976563 48.589844 76.253906 48.980469 76.15625 C 46.382813 74.539063 43.214844 76.164063 40.648438 76.421875 "/>
<path style=" stroke:none;fill-rule:evenodd;fill:rgb(13.725281%,12.156677%,12.548828%);fill-opacity:1;" d="M 71.785156 76.019531 C 72.164063 76.007813 72.515625 75.925781 72.992188 75.957031 C 75.308594 76.105469 78.527344 77.621094 80.324219 75.957031 C 77.449219 75.957031 74.199219 74.933594 71.785156 76.019531 "/>
<path style=" stroke:none;fill-rule:evenodd;fill:rgb(13.725281%,12.156677%,12.548828%);fill-opacity:1;" d="M 58.585938 77.152344 C 59.320313 77.691406 62.324219 78.816406 64.527344 78.277344 C 65.164063 78.125 66.269531 77.980469 66.925781 77.929688 C 68.871094 77.792969 70.425781 78.292969 72.257813 78.089844 C 72.992188 78.007813 73.777344 77.753906 74.191406 77.355469 C 68.003906 75.050781 64.320313 78.660156 58.585938 77.152344 "/>
<path style=" stroke:none;fill-rule:evenodd;fill:rgb(13.725281%,12.156677%,12.548828%);fill-opacity:1;" d="M 68.65625 74.554688 C 69.773438 74.53125 70.683594 74.660156 71.191406 74.6875 C 72.871094 74.773438 74.597656 74.648438 76.324219 74.820313 C 77.847656 74.972656 79.382813 75.207031 80.855469 74.753906 C 77.421875 73.386719 70.886719 74.148438 68.65625 74.554688 "/>
<path style=" stroke:none;fill-rule:evenodd;fill:rgb(13.725281%,12.156677%,12.548828%);fill-opacity:1;" d="M 74.058594 68.082031 C 73.898438 68.289063 73.78125 68.660156 73.457031 68.617188 C 72.871094 67.671875 72.230469 65.226563 72.207031 65.152344 C 72.171875 65.054688 75.054688 53.207031 75.058594 53.214844 C 75.054688 53.207031 69.21875 56.882813 69.183594 56.882813 C 68.960938 56.078125 68.625 55.113281 68.390625 54.351563 C 68.417969 54.351563 66.925781 58.03125 66.925781 58.03125 C 66.925781 58.03125 65.902344 58.703125 65.1875 59.152344 C 64.492188 59.589844 63.734375 60.046875 63.003906 60.390625 C 63.816406 54.945313 66.582031 50.738281 69.65625 47.75 C 69.671875 47.664063 69.761719 47.613281 69.589844 47.617188 C 67.378906 48.96875 59.300781 53.871094 59.285156 53.792969 C 59.28125 53.765625 58.171875 50.324219 58.1875 50.351563 C 58.246094 50.324219 57.304688 54.941406 57.269531 55.011719 C 57.304688 55.011719 46.503906 61.710938 44.382813 63.351563 C 43.363281 64.140625 42.808594 67.453125 43.78125 68.488281 C 45.230469 68.847656 46.761719 68.671875 48.246094 68.75 C 48.660156 69.289063 49.15625 69.765625 49.585938 70.285156 C 50.011719 70.8125 50.457031 71.34375 50.785156 71.953125 C 49.964844 72.398438 49.199219 72.875 48.1875 73.019531 C 44.828125 73.507813 40.316406 71.550781 37.582031 73.355469 C 39.628906 73.835938 42.375 73.070313 43.78125 73.289063 C 44.21875 73.355469 44.609375 73.59375 45.050781 73.6875 C 45.644531 73.816406 46.699219 73.921875 47.339844 73.941406 C 50.941406 74.019531 54.667969 72.742188 58.050781 73.15625 C 59.664063 73.351563 60.867188 73.578125 62.390625 73.488281 C 64.695313 73.351563 67.101563 72.855469 69.386719 72.753906 C 73.316406 72.582031 77.277344 73.429688 81.125 73.089844 C 79.652344 71.695313 76.6875 72.167969 74.390625 72.289063 C 74.925781 71.132813 76.023438 70.078125 76.722656 69.152344 C 76.773438 69.085938 77.058594 68.859375 76.859375 68.75 C 75.96875 68.707031 74.902344 68.84375 74.125 68.683594 C 74.289063 68.363281 74.515625 68.039063 74.722656 67.753906 C 74.945313 67.453125 75.167969 67.171875 75.394531 66.886719 C 75.835938 66.320313 76.292969 65.734375 76.789063 65.214844 C 77.996094 65.785156 80.015625 65.671875 79.859375 63.953125 C 78.78125 64.09375 78.347656 63.59375 77.726563 63.285156 C 76.554688 64.851563 75.214844 66.59375 74.058594 68.082031 "/>
<path style=" stroke:none;fill-rule:evenodd;fill:rgb(100%,100%,100%);fill-opacity:1;" d="M 74.53125 53.898438 C 74.53125 53.898438 72.03125 64.320313 72.03125 64.769531 C 71.882813 64.582031 69.484375 57.949219 69.289063 57.164063 C 69.253906 57.164063 74.566406 53.898438 74.53125 53.898438 "/>
<path style=" stroke:none;fill-rule:evenodd;fill:rgb(100%,100%,100%);fill-opacity:1;" d="M 68.390625 48.683594 C 68.417969 48.691406 67.070313 50.296875 66.453125 51.148438 C 64.65625 53.648438 63.398438 56.882813 62.621094 60.53125 C 62.550781 60.542969 61.957031 60.949219 61.820313 61.050781 C 61.820313 61.050781 59.390625 54.144531 59.421875 54.175781 C 59.421875 54.175781 68.417969 48.617188 68.390625 48.683594 "/>
<path style=" stroke:none;fill-rule:evenodd;fill:rgb(100%,100%,100%);fill-opacity:1;" d="M 59.078125 54.417969 C 59.039063 54.382813 61.648438 61.226563 61.613281 61.191406 C 61.304688 61.492188 61.046875 61.761719 60.761719 62.078125 C 60.761719 62.078125 58.453125 54.789063 58.453125 54.835938 C 58.453125 54.785156 59.078125 54.417969 59.078125 54.417969 "/>
<path style=" stroke:none;fill-rule:evenodd;fill:rgb(100%,100%,100%);fill-opacity:1;" d="M 47.050781 66.082031 C 46.230469 66.9375 47.632813 67.667969 47.71875 68.21875 C 46.433594 68.316406 44.988281 68.460938 43.714844 68.15625 C 43.582031 65.988281 43.851563 63.667969 45.515625 63.082031 C 45.972656 63.523438 50.996094 68.324219 50.988281 68.550781 C 48.929688 68.730469 48.71875 66.507813 47.050781 66.082031 "/>
<path style=" stroke:none;fill-rule:evenodd;fill:rgb(100%,100%,100%);fill-opacity:1;" d="M 53.71875 69.488281 C 53.332031 69.109375 53.15625 68.683594 52.515625 68.550781 C 52.328125 68.515625 52.078125 68.617188 51.851563 68.550781 C 51.335938 68.402344 47.164063 64.476563 45.984375 62.824219 C 49.601563 60.351563 53.355469 57.941406 57.121094 55.613281 C 57.101563 55.566406 54.804688 69.285156 54.785156 69.355469 C 54.539063 69.542969 54.089844 69.609375 53.71875 69.488281 "/>
<path style=" stroke:none;fill-rule:evenodd;fill:rgb(100%,100%,100%);fill-opacity:1;" d="M 56.585938 68.488281 C 56.253906 68.597656 55.667969 68.65625 55.1875 68.621094 C 55.195313 68.628906 57.472656 55.34375 57.476563 55.394531 C 57.476563 55.402344 58.15625 54.960938 58.136719 54.976563 C 58.121094 54.960938 60.503906 62.375 60.503906 62.375 C 58.9375 64.152344 57.644531 66.199219 56.585938 68.488281 "/>
<path style=" stroke:none;fill-rule:evenodd;fill:rgb(100%,100%,100%);fill-opacity:1;" d="M 61.605469 69.761719 C 61.449219 69.878906 58.710938 69.710938 58.382813 69.632813 C 58.117188 69.558594 56.84375 68.636719 56.855469 68.617188 C 57.484375 67.144531 58.21875 65.878906 58.988281 64.753906 C 59.199219 64.4375 60.929688 62.257813 61.675781 61.605469 C 62.398438 60.964844 63.414063 60.558594 64.253906 60.085938 C 65.160156 59.574219 66.800781 58.414063 66.824219 58.414063 C 67.027344 58.445313 61.769531 69.640625 61.605469 69.761719 "/>
<path style=" stroke:none;fill-rule:evenodd;fill:rgb(100%,100%,100%);fill-opacity:1;" d="M 61.992188 69.804688 C 62.101563 69.390625 67.054688 58.5625 67.191406 58.363281 C 67.335938 58.140625 67.578125 58.066406 67.621094 58.066406 C 66.929688 60.019531 63.21875 69.5625 63.171875 69.832031 C 62.867188 69.847656 62.296875 69.84375 61.992188 69.804688 "/>
<path style=" stroke:none;fill-rule:evenodd;fill:rgb(100%,100%,100%);fill-opacity:1;" d="M 70.730469 68.667969 C 70.628906 69.144531 70.136719 69.148438 69.765625 69.277344 C 69.445313 69.390625 69.144531 69.527344 68.828125 69.65625 C 68.515625 69.789063 68.246094 69.742188 67.898438 69.769531 C 66.46875 69.890625 64.96875 70.117188 63.523438 69.878906 C 63.582031 69.882813 67.257813 59.773438 67.722656 58.519531 C 67.726563 58.511719 67.949219 57.828125 67.96875 57.964844 C 68.214844 59.726563 70.824219 68.230469 70.730469 68.667969 "/>
<path style=" stroke:none;fill-rule:evenodd;fill:rgb(100%,100%,100%);fill-opacity:1;" d="M 71.253906 68.757813 C 71.046875 68.617188 68.28125 57.789063 68.316406 57.753906 C 68.449219 57.609375 68.839844 57.410156 68.9375 57.410156 C 69.082031 57.824219 72.351563 66.6875 72.855469 68.617188 C 72.90625 68.816406 71.414063 68.863281 71.253906 68.757813 "/>
<path style=" stroke:none;fill-rule:evenodd;fill:rgb(13.725281%,12.156677%,12.548828%);fill-opacity:1;" d="M 55.957031 77.730469 C 55.980469 77.714844 56.398438 77.691406 56.203125 77.5 C 55.847656 77.464844 55.460938 77.433594 55.058594 77.421875 C 52.878906 77.339844 50.738281 77.878906 48.527344 77.558594 C 48.144531 77.507813 47.730469 77.304688 47.332031 77.402344 C 49.417969 78.648438 52.949219 78.679688 54.785156 78.1875 C 55.269531 78.058594 55.613281 77.90625 55.957031 77.730469 "/>
<path style=" stroke:none;fill-rule:evenodd;fill:rgb(13.725281%,12.156677%,12.548828%);fill-opacity:1;" d="M 53.453125 79.753906 C 56.199219 79.648438 60.164063 80.421875 62.1875 79.488281 C 59.546875 78.90625 55.695313 78.621094 53.453125 79.753906 "/>
<path style=" stroke:none;fill-rule:evenodd;fill:rgb(13.725281%,12.156677%,12.548828%);fill-opacity:1;" d="M 57.121094 81.15625 C 57.40625 81.292969 57.816406 81.742188 57.855469 81.753906 C 58.035156 81.832031 58.425781 81.878906 58.65625 81.890625 C 59.304688 81.917969 60.078125 81.667969 60.453125 81.355469 C 59.265625 81.265625 58.160156 81.101563 57.121094 81.15625 "/>
<path style=" stroke:none;fill-rule:nonzero;fill:rgb(13.725281%,12.156677%,12.548828%);fill-opacity:1;" d="M 73.289063 99.339844 C 71.542969 99.339844 71.757813 97.738281 71.457031 96.539063 C 71.324219 96.015625 70.964844 95.597656 70.347656 95.5625 C 69.929688 95.542969 69.148438 95.398438 69.125 95.039063 C 69.125 95.039063 68.140625 96.808594 68.152344 96.832031 C 68.542969 96.667969 68.710938 96.585938 69.191406 96.574219 C 70.820313 96.550781 70.320313 97.390625 70.917969 99.339844 L 67.335938 99.339844 C 67.335938 99.339844 67.335938 94.644531 67.335938 94.078125 C 67.335938 93.703125 67.566406 93.402344 67.917969 93.402344 L 66.25 92.28125 L 66.25 100.503906 L 73.511719 100.503906 L 73.511719 99.339844 Z M 70.183594 101.597656 C 69.90625 101.597656 69.695313 101.789063 69.695313 102.066406 C 69.695313 102.3125 69.78125 102.574219 70.128906 102.574219 C 70.429688 102.574219 70.621094 102.4375 70.621094 102.109375 C 70.621094 101.867188 70.511719 101.597656 70.183594 101.597656 Z M 64.265625 99.339844 L 62.96875 99.339844 C 62.96875 99.339844 62.96875 99.085938 62.96875 98.9375 C 62.96875 98.5625 63.046875 98.132813 63.652344 98.132813 C 64.09375 98.132813 64.277344 98.539063 64.265625 98.917969 C 64.265625 99.0625 64.265625 99.339844 64.265625 99.339844 Z M 57.941406 98.238281 C 57.496094 97.914063 57.316406 97.796875 56.746094 97.574219 C 57.152344 97.363281 57.605469 96.898438 57.605469 96.898438 C 57.605469 96.898438 57.605469 96.65625 57.605469 96.550781 C 57.605469 96.269531 58.332031 96.269531 58.332031 96.550781 L 58.332031 96.910156 C 58.332031 97.089844 59.035156 97.503906 59.113281 97.5625 C 58.566406 97.78125 58.46875 97.933594 57.941406 98.238281 Z M 52.695313 99.339844 L 51.746094 99.339844 C 51.746094 98.898438 52.101563 98.484375 52.695313 98.484375 C 52.695313 98.886719 52.695313 99.339844 52.695313 99.339844 Z M 63.652344 96.96875 C 62.5 96.96875 61.808594 98.039063 61.808594 98.578125 L 61.808594 99.339844 L 59.316406 99.339844 C 59.316406 99.339844 59.234375 99.269531 58.859375 98.796875 C 59.28125 98.507813 59.683594 98.214844 60.507813 98.214844 C 60.65625 98.214844 61.039063 98.238281 61.039063 98.179688 C 61.039063 97.273438 59.394531 96.886719 59.328125 96.722656 C 59.234375 96.515625 59.148438 95.972656 58.800781 95.609375 C 58.390625 95.003906 58.296875 95.191406 58.121094 94.699219 C 58.050781 95.039063 57.464844 95.421875 57.234375 95.65625 C 56.894531 96.015625 56.648438 96.492188 56.648438 96.558594 C 56.636719 96.933594 54.917969 97.273438 54.917969 98.179688 C 54.917969 98.238281 55.296875 98.214844 55.441406 98.214844 C 56.269531 98.214844 56.648438 98.484375 57.074219 98.796875 C 56.660156 99.257813 56.527344 99.339844 56.527344 99.339844 L 53.71875 99.339844 C 53.71875 99.339844 53.71875 95.144531 53.71875 94.796875 C 53.71875 94.78125 52.023438 95.894531 52.023438 95.894531 C 52.367188 95.894531 52.671875 96.246094 52.671875 96.679688 C 52.671875 97.328125 51.824219 97.226563 51.21875 97.75 C 50.425781 98.421875 50.363281 100.214844 50.480469 100.503906 L 56.917969 100.503906 L 57.996094 99.351563 L 58.769531 100.503906 L 65.449219 100.503906 L 65.449219 98.785156 C 65.449219 97.804688 64.644531 96.96875 63.652344 96.96875 Z M 51.847656 93.890625 C 52.148438 93.890625 52.339844 93.746094 52.339844 93.421875 C 52.339844 93.175781 52.222656 92.910156 51.902344 92.910156 C 51.621094 92.910156 51.40625 93.097656 51.40625 93.375 C 51.40625 93.617188 51.5 93.890625 51.847656 93.890625 Z M 53.175781 93.832031 C 53.410156 93.832031 53.664063 93.757813 53.664063 93.375 C 53.664063 93.085938 53.496094 92.859375 53.230469 92.859375 C 53.003906 92.859375 52.738281 92.945313 52.738281 93.316406 C 52.738281 93.558594 52.800781 93.832031 53.175781 93.832031 Z M 46.734375 92.355469 L 46.734375 101.296875 L 48.402344 100.183594 C 48.054688 100.183594 47.820313 99.878906 47.820313 99.503906 L 47.820313 94.144531 C 47.820313 93.773438 48.054688 93.46875 48.402344 93.46875 Z M 32.207031 99.339844 C 32.027344 99.339844 31.949219 99.371094 31.613281 99.339844 C 31.199219 99.308594 31.109375 99.078125 31.101563 98.75 C 31.089844 98.484375 31.5 98.25 31.820313 98.238281 L 32.207031 98.238281 Z M 43.699219 93.402344 C 44.042969 93.402344 44.28125 93.703125 44.28125 94.078125 C 44.28125 94.644531 44.28125 99.339844 44.28125 99.339844 L 43.371094 99.339844 L 43.371094 99.042969 C 43.371094 98.050781 42.953125 97.238281 41.71875 97.238281 C 39.496094 97.238281 37.34375 97.238281 37.34375 97.238281 C 37.8125 96.867188 39.765625 95.4375 40.21875 95.109375 C 40.511719 94.902344 40.847656 94.9375 41.058594 95.234375 L 41.085938 93.28125 L 41.003906 93.167969 L 34.339844 98.367188 L 41.785156 98.367188 C 42.210938 98.367188 42.253906 98.925781 42.253906 99.339844 L 34.71875 99.339844 C 34.71875 99.339844 34.183594 99.339844 33.769531 99.339844 L 33.320313 99.339844 C 33.320313 98.132813 33.320313 96.492188 33.320313 96.492188 C 33.121094 96.640625 33.179688 96.808594 32.808594 97.003906 C 32.464844 97.179688 31.894531 97.097656 31.089844 97.390625 C 30.800781 97.492188 30.105469 98.023438 30.121094 98.820313 C 30.132813 99.679688 30.65625 100.503906 31.546875 100.503906 C 31.925781 100.503906 31.996094 100.519531 32.207031 100.503906 C 32.195313 100.574219 32.207031 100.671875 32.207031 100.832031 C 32.207031 102.34375 30.890625 102.519531 30.890625 102.519531 C 30.742188 102.519531 30.042969 102.539063 29.882813 102.378906 L 29.898438 102.550781 C 30.207031 102.914063 31.023438 102.996094 31.054688 102.996094 C 32.851563 103.109375 33.167969 101.824219 33.167969 101.824219 C 33.320313 101.53125 33.320313 100.832031 33.320313 100.625 L 33.320313 100.503906 L 45.359375 100.503906 L 45.359375 92.28125 Z M 27.023438 101.53125 C 26.746094 101.53125 26.535156 101.714844 26.535156 101.996094 C 26.535156 102.242188 26.621094 102.5 26.96875 102.5 C 27.273438 102.5 27.460938 102.367188 27.460938 102.039063 C 27.460938 101.796875 27.347656 101.53125 27.023438 101.53125 Z M 28.351563 101.484375 C 28.132813 101.484375 27.863281 101.566406 27.863281 101.941406 C 27.863281 102.179688 27.929688 102.449219 28.296875 102.449219 C 28.53125 102.449219 28.789063 102.378906 28.789063 101.996094 C 28.789063 101.703125 28.621094 101.484375 28.351563 101.484375 Z M 27.195313 96.820313 C 27.539063 96.820313 27.773438 97.121094 27.773438 97.492188 C 27.773438 98.0625 27.773438 99.339844 27.773438 99.339844 L 24.859375 99.339844 L 24.859375 95.703125 L 23.195313 96.820313 C 23.539063 96.820313 23.742188 97.121094 23.742188 97.492188 C 23.742188 98.0625 23.742188 99.339844 23.742188 99.339844 C 23.742188 99.339844 21.871094 99.339844 21.527344 99.339844 C 21.179688 99.339844 20.902344 99.171875 20.886719 98.835938 L 20.886719 97.378906 C 20.890625 97.082031 21.046875 96.867188 21.320313 96.867188 L 19.75 95.804688 L 19.75 100.496094 L 19.808594 100.496094 L 19.808594 100.503906 L 28.855469 100.503906 L 28.855469 95.703125 Z M 21.535156 95.246094 C 21.835938 95.246094 22.027344 95.109375 22.027344 94.78125 C 22.027344 94.539063 21.914063 94.273438 21.59375 94.273438 C 21.3125 94.273438 21.097656 94.457031 21.097656 94.738281 C 21.097656 94.980469 21.1875 95.246094 21.535156 95.246094 Z M 22.863281 95.191406 C 23.097656 95.191406 23.351563 95.121094 23.351563 94.738281 C 23.351563 94.449219 23.1875 94.226563 22.917969 94.226563 C 22.699219 94.226563 22.425781 94.308594 22.425781 94.679688 C 22.425781 94.921875 22.492188 95.191406 22.863281 95.191406 "/>
<path style=" stroke:none;fill-rule:nonzero;fill:rgb(13.725281%,12.156677%,12.548828%);fill-opacity:1;" d="M 20.875 36.714844 C 20.46875 36.714844 20.140625 37.042969 20.140625 37.449219 C 20.140625 37.855469 20.46875 38.183594 20.875 38.183594 C 21.28125 38.183594 21.613281 37.855469 21.613281 37.449219 C 21.613281 37.042969 21.28125 36.714844 20.875 36.714844 Z M 43.9375 33.03125 C 44.257813 33.03125 44.476563 33.289063 44.476563 33.636719 L 44.476563 36.144531 C 44.445313 37.070313 44.347656 37.527344 42.625 37.585938 L 42.496094 37.585938 L 42.558594 37.699219 C 42.859375 38.03125 43.648438 38.144531 43.902344 38.152344 C 45.671875 38.140625 45.605469 36.132813 45.609375 36.132813 L 45.609375 31.78125 L 43.691406 33.03125 Z M 22.726563 36.714844 C 22.320313 36.714844 21.992188 37.042969 21.992188 37.449219 C 21.992188 37.855469 22.320313 38.183594 22.726563 38.183594 C 23.132813 38.183594 23.460938 37.855469 23.460938 37.449219 C 23.460938 37.042969 23.132813 36.714844 22.726563 36.714844 Z M 30.296875 30.664063 C 30.296875 31.070313 30.625 31.398438 31.03125 31.398438 C 31.4375 31.398438 31.765625 31.070313 31.765625 30.664063 C 31.765625 30.257813 31.4375 29.929688 31.03125 29.929688 C 30.625 29.929688 30.296875 30.257813 30.296875 30.664063 Z M 25.933594 35.714844 C 26.554688 35.714844 28 35.710938 28.25 35.710938 C 28.464844 35.710938 25.714844 32.285156 25.570313 31.921875 C 25.570313 31.921875 25.445313 31.535156 25.957031 31.519531 C 26.328125 31.761719 26.921875 32.59375 27.691406 33.664063 C 28.472656 34.742188 29.1875 35.667969 29.1875 35.667969 L 29.207031 35.695313 L 33.515625 35.695313 L 33.515625 30.832031 L 31.445313 32.167969 L 31.699219 32.167969 C 32.007813 32.167969 32.230469 32.429688 32.234375 32.773438 L 32.234375 34.5625 L 30 34.5625 C 29.914063 34.609375 28.871094 33.203125 27.921875 31.820313 C 26.949219 30.4375 26.464844 29.394531 25.164063 30.15625 C 24.132813 30.816406 23.660156 31.378906 24 32.082031 L 25.839844 34.5625 L 19.832031 34.5625 C 19.523438 34.582031 19.261719 34.035156 19.222656 33.78125 L 19.179688 33.550781 L 19.082031 33.765625 C 19.082031 33.765625 18.21875 35.402344 18.132813 35.609375 L 18.089844 35.710938 L 18.203125 35.710938 C 18.203125 35.710938 19.058594 35.710938 20.222656 35.710938 C 21.441406 35.710938 24.683594 35.722656 25.933594 35.714844 Z M 44.875 31.398438 C 45.28125 31.398438 45.609375 31.070313 45.609375 30.664063 C 45.609375 30.257813 45.28125 29.929688 44.875 29.929688 C 44.46875 29.929688 44.140625 30.257813 44.140625 30.664063 C 44.140625 31.070313 44.46875 31.398438 44.875 31.398438 Z M 36.773438 32.503906 C 36.363281 32.5 36.023438 32.3125 36.023438 32.015625 L 36.023438 31.765625 L 34.691406 33.679688 L 41.628906 33.679688 C 41.917969 33.679688 41.992188 34.078125 41.992188 34.386719 C 41.992188 34.460938 41.984375 34.523438 41.984375 34.5625 C 41.785156 34.566406 34.691406 34.5625 34.691406 34.5625 L 34.691406 35.71875 L 43.128906 35.71875 L 43.128906 34.367188 C 43.125 33.203125 42.808594 32.503906 41.488281 32.503906 Z M 29.140625 45.667969 C 28.796875 45.667969 28.515625 45.386719 28.515625 45.039063 C 28.515625 44.78125 28.679688 44.601563 28.894531 44.460938 C 29.03125 44.335938 29.082031 44.246094 29.140625 44.09375 C 29.203125 44.246094 29.273438 44.34375 29.390625 44.460938 C 29.613281 44.59375 29.773438 44.777344 29.773438 45.039063 C 29.773438 45.386719 29.488281 45.667969 29.140625 45.667969 Z M 39.25 43.621094 C 39.25 43.621094 39.1875 43.636719 39.1875 43.632813 C 38.824219 43.707031 38.585938 44.050781 38.519531 44.101563 C 38.121094 44.386719 36.742188 44.652344 36.589844 43.261719 C 36.527344 42.683594 37 42.210938 37.507813 42.210938 C 37.984375 42.210938 38.375 42.628906 38.417969 43.164063 L 38.421875 43.160156 L 38.421875 43.171875 L 38.578125 43.097656 C 39.085938 42.839844 39.128906 41.667969 38.734375 41.457031 C 39.144531 41.164063 39.140625 39.5 38.261719 39.078125 C 38.078125 38.996094 37.492188 38.75 37.492188 38.75 C 37.492188 38.75 38.152344 39.742188 38.101563 40.160156 C 38.058594 40.523438 37.972656 40.589844 37.660156 40.699219 C 37.410156 40.78125 37.070313 40.835938 36.683594 40.957031 C 36.617188 40.972656 36.113281 41.210938 36.058594 41.253906 C 35.53125 41.628906 35.183594 42.242188 35.183594 42.9375 C 35.183594 43.488281 35.402344 43.984375 35.75 44.355469 C 35.160156 44.355469 33.238281 44.355469 33.238281 44.355469 L 33.238281 38.703125 L 31.152344 40.210938 L 31.648438 40.210938 C 31.910156 40.214844 32.089844 40.421875 32.09375 40.726563 L 32.09375 44.355469 L 31.054688 44.355469 C 30.886719 43.808594 30.476563 43.378906 29.933594 43.09375 C 29.507813 42.878906 29.339844 42.410156 29.140625 41.933594 C 28.945313 42.414063 28.746094 42.839844 28.347656 43.097656 C 27.84375 43.394531 27.417969 43.816406 27.234375 44.355469 L 25.953125 44.355469 L 25.953125 38.703125 L 23.855469 40.210938 L 24.355469 40.210938 C 24.613281 40.214844 24.796875 40.421875 24.796875 40.726563 L 24.796875 45.496094 L 27.21875 45.496094 L 27.21875 45.476563 C 27.457031 46.316406 28.226563 46.933594 29.140625 46.933594 C 30.042969 46.933594 30.804688 46.335938 31.054688 45.515625 C 31.414063 45.515625 32.03125 45.515625 32.03125 45.515625 L 39.847656 45.515625 C 39.847656 45.515625 39.242188 44.300781 39.25 43.820313 Z M 40.871094 24.214844 C 40.871094 24.878906 40.886719 25.960938 40.871094 27.113281 C 40.863281 28.195313 40.660156 28.820313 38.65625 28.863281 C 38.886719 29.210938 39.859375 29.347656 40.132813 29.347656 C 42.082031 29.347656 42.191406 26.992188 42.191406 26.992188 L 42.191406 22.128906 L 40.171875 23.429688 C 40.589844 23.429688 40.871094 23.78125 40.871094 24.214844 Z M 39.265625 22.609375 L 37.246094 23.90625 C 37.664063 23.90625 37.914063 24.261719 37.914063 24.691406 L 37.914063 25.890625 C 37.796875 26.132813 37.511719 26.253906 37.179688 26.253906 L 23.597656 26.253906 C 23.265625 26.253906 22.980469 26.132813 22.867188 25.890625 L 22.867188 24.691406 C 22.867188 24.261719 23.113281 23.90625 23.53125 23.90625 L 21.511719 22.609375 L 21.511719 27.390625 L 39.265625 27.390625 Z M 35.113281 28.722656 C 35.113281 28.316406 34.78125 27.988281 34.375 27.988281 C 33.96875 27.988281 33.636719 28.316406 33.636719 28.722656 C 33.636719 29.128906 33.96875 29.457031 34.375 29.457031 C 34.78125 29.457031 35.113281 29.128906 35.113281 28.722656 "/>
</g>
</svg>
